<svg xmlns="http://www.w3.org/2000/svg" viewBox="0 0 160 160" width="160" height="160">
	<style>
		tspan { white-space:pre }
		.shp0 { fill: #ff9d8d } 
		.shp1 { fill: #ffffff } 
	</style>
	<g id="Layer 1">
		<path id="Path 0" class="shp0" d="M48 15.01C31.23 23.21 17.05 30.29 16.5 30.75C15.95 31.21 12.01 47.32 7.74 66.54C3.47 85.77 -0.04 101.95 -0.05 102.5C-0.07 103.05 3.11 107.55 7.01 112.5C10.91 117.45 14.64 122.19 15.3 123.04C15.96 123.89 18.72 127.49 21.44 131.04C24.15 134.59 30.34 142.56 35.19 148.75L44 160L116 160C129.66 142.56 136.52 133.75 140.06 129.16C143.6 124.57 149.55 116.92 153.29 112.16C157.02 107.4 160.07 103.05 160.05 102.5C160.04 101.95 156.61 85.97 152.43 67C148.26 48.02 144.54 32.03 144.17 31.46C143.8 30.89 129.44 23.58 112.25 15.21C95.06 6.85 80.44 0.02 79.75 0.05C79.06 0.08 64.78 6.81 48 15.01Z" />
		<path id="Path 1" class="shp1" d="M43.5 42.87C41.3 43.87 37.96 46 36.09 47.6C34.21 49.19 31.68 52.08 30.46 54C29.24 55.92 27.45 60.2 26.49 63.5C25.32 67.51 24.9 71.49 25.21 75.5C25.47 78.8 26.79 83.97 28.15 87C29.51 90.03 32.62 94.43 35.06 96.78C37.63 99.25 41.82 101.93 45 103.13C49.33 104.76 52.09 105.1 58 104.76C63.02 104.47 66.91 103.62 69.75 102.17C72.09 100.97 74 99.78 74 99.5C74 99.22 73.21 97.47 72.25 95.59L70.5 92.19C63.56 95.93 60.76 96.5 55.92 96.5C50.36 96.5 48.59 96.04 44.48 93.5C40.87 91.28 38.88 89.08 36.78 85C34.48 80.56 33.95 78.25 33.99 73C34.02 68.96 34.73 64.98 35.86 62.5C36.85 60.3 39.21 56.96 41.08 55.09C42.96 53.21 45.96 51.07 47.75 50.34C49.54 49.6 53.36 49.01 56.25 49.02C59.27 49.03 63.42 49.89 66 51.03C68.47 52.12 70.53 52.9 70.58 52.76C70.62 52.62 71.29 50.99 72.08 49.14C73.4 46.03 73.36 45.7 71.5 44.64C70.4 44.01 68.15 42.97 66.5 42.33C64.85 41.68 59.9 41.13 55.5 41.1C49.79 41.06 46.35 41.57 43.5 42.87ZM103.5 43.35C100.75 44.64 96.73 47.67 94.56 50.09C92.39 52.52 89.69 56.53 88.56 59C86.94 62.54 86.5 65.53 86.5 73C86.5 81.24 86.85 83.23 89.16 88C90.62 91.03 93.44 94.96 95.41 96.75C97.38 98.54 100.91 101 103.25 102.23C106.72 104.06 109.14 104.47 116.5 104.48C123.78 104.5 126.41 104.07 130.25 102.25L135 100L131.5 92.11C124.6 95.83 121.71 96.43 117 96.46C111.89 96.48 109.54 95.95 106.04 93.99C103.59 92.62 100.33 89.7 98.8 87.5C97.27 85.3 95.56 81.14 95.01 78.25C94.44 75.27 94.34 71.16 94.8 68.75C95.23 66.41 96.81 62.36 98.3 59.75C99.82 57.08 102.83 53.8 105.18 52.25C108.3 50.2 110.92 49.41 115.43 49.13C120.11 48.84 122.53 49.25 126 50.89C128.47 52.07 130.61 53.02 130.75 53.01C130.89 53.01 131.68 51.42 132.5 49.5C133.32 47.58 134.02 45.89 134.04 45.75C134.06 45.61 131.81 44.49 129.04 43.25C125.21 41.54 122.14 41 116.25 41.01C110.24 41.02 107.38 41.54 103.5 43.35Z" />
	</g>
</svg>